<svg xmlns="http://www.w3.org/2000/svg" viewBox="0 0 32 32" width="100%" height="100%">
  <circle cx="16" cy="16" r="16" fill="#F7931A"/>
  <path d="M23.18 12.87c.29-1.96-1.2-3.01-3.24-3.71l.66-2.66-1.62-.4-0.65 2.6c-.43-.11-.86-.21-1.29-.31l.65-2.62-1.62-.4-0.66 2.66c-.35-.08-.69-.16-1.02-.24l.001-.01-2.24-.56-.43 1.74s1.21.28 1.18.29c.66.16.78.6.76.95l-.76 3.06c.05.01.11.03.16.05l-.16-.04-1.07 4.3c-.08.2-.26.5-.68.4l-1.19-.3-.86 1.97 2.11.53c.39.1.77.2 1.15.29l-.67 2.69 1.62.4 0.67-2.68c.44.12.87.23 1.29.33l-.66 2.65 1.62.4 0.67-2.69c2.77.52 4.85.31 5.73-2.19.71-2.01-.04-3.17-1.49-3.93.105-.24.185-.41.25-.56 1.06-.79 1.86-2.28 1.34-4.38zm-3.8 6.37c-.5 2.02-3.91.93-5.01.66l.9-3.59c1.1.27 4.63.81 4.11 2.93zm.5-4.41c-.46 1.84-3.3 0.91-4.21.68l.81-3.26c.91.23 3.87.65 3.4 2.58z" fill="#FFFFFF"/>
</svg>
